<?xml version="1.0" encoding="utf-8" standalone="no"?>
<!DOCTYPE svg PUBLIC "-//W3C//DTD SVG 1.1//EN"
  "http://www.w3.org/Graphics/SVG/1.1/DTD/svg11.dtd">
<svg xmlns:xlink="http://www.w3.org/1999/xlink" width="255.11811pt" height="255.11811pt" viewBox="0 0 255.11811 255.11811" xmlns="http://www.w3.org/2000/svg" version="1.1">
 <metadata>
  <rdf:RDF xmlns:dc="http://purl.org/dc/elements/1.1/" xmlns:cc="http://creativecommons.org/ns#" xmlns:rdf="http://www.w3.org/1999/02/22-rdf-syntax-ns#">
   <cc:Work>
    <dc:type rdf:resource="http://purl.org/dc/dcmitype/StillImage"/>
    <dc:date>2026-08-25T00:54:13.861834</dc:date>
    <dc:format>image/svg+xml</dc:format>
    <dc:creator>
     <cc:Agent>
      <dc:title>Matplotlib v3.10.1, https://matplotlib.org/</dc:title>
     </cc:Agent>
    </dc:creator>
   </cc:Work>
  </rdf:RDF>
 </metadata>
 <defs>
  <style type="text/css">*{stroke-linejoin: round; stroke-linecap: butt}</style>
 </defs>
 <g id="figure_1">
  <g id="patch_1">
   <path d="M 0 255.11811 
L 255.11811 255.11811 
L 255.11811 0 
L 0 0 
L 0 255.11811 
z
" style="fill: none"/>
  </g>
  <g id="axes_1">
   <g id="patch_2">
    <path d="M 237.259843 144.141732 
C 237.259843 129.735957 234.422219 115.470259 228.909367 102.161058 
C 223.396516 88.851857 215.315647 76.757983 205.129226 66.571562 
C 194.942804 56.38514 182.84893 48.304272 169.539729 42.79142 
C 156.230528 37.278569 141.964831 34.440945 127.559055 34.440945 
C 113.15328 34.440945 98.887582 37.278569 85.578381 42.79142 
C 72.26918 48.304272 60.175306 56.38514 49.988884 66.571562 
C 39.802463 76.757983 31.721595 88.851857 26.208743 102.161058 
C 20.695891 115.470259 17.858268 129.735957 17.858268 144.141732 
C 17.858268 158.547508 20.695891 172.813205 26.208743 186.122406 
C 31.721595 199.431607 39.802463 211.525481 49.988884 221.711903 
C 60.175306 231.898324 72.26918 239.979193 85.578381 245.492044 
C 98.887582 251.004896 113.15328 253.84252 127.559055 253.84252 
C 141.964831 253.84252 156.230528 251.004896 169.539729 245.492044 
C 182.84893 239.979193 194.942804 231.898324 205.129226 221.711903 
C 215.315647 211.525481 223.396516 199.431607 228.909367 186.122406 
C 234.422219 172.813205 237.259843 158.547508 237.259843 144.141732 
M 127.559055 144.141732 
C 127.559055 144.141732 127.559055 144.141732 127.559055 144.141732 
C 127.559055 144.141732 127.559055 144.141732 127.559055 144.141732 
C 127.559055 144.141732 127.559055 144.141732 127.559055 144.141732 
C 127.559055 144.141732 127.559055 144.141732 127.559055 144.141732 
C 127.559055 144.141732 127.559055 144.141732 127.559055 144.141732 
C 127.559055 144.141732 127.559055 144.141732 127.559055 144.141732 
C 127.559055 144.141732 127.559055 144.141732 127.559055 144.141732 
C 127.559055 144.141732 127.559055 144.141732 127.559055 144.141732 
C 127.559055 144.141732 127.559055 144.141732 127.559055 144.141732 
C 127.559055 144.141732 127.559055 144.141732 127.559055 144.141732 
C 127.559055 144.141732 127.559055 144.141732 127.559055 144.141732 
C 127.559055 144.141732 127.559055 144.141732 127.559055 144.141732 
C 127.559055 144.141732 127.559055 144.141732 127.559055 144.141732 
C 127.559055 144.141732 127.559055 144.141732 127.559055 144.141732 
C 127.559055 144.141732 127.559055 144.141732 127.559055 144.141732 
C 127.559055 144.141732 127.559055 144.141732 127.559055 144.141732 
L 127.559055 144.141732 
z
" style="fill: none"/>
   </g>
   <g id="line2d_1">
    <path d="M 127.559055 75.635451 
L 131.741264 75.763229 
L 135.907871 76.146086 
L 140.043333 76.782595 
L 144.132225 77.67038 
L 148.159291 78.80613 
L 152.109511 80.185609 
L 155.968147 81.803669 
L 159.720806 83.654276 
L 163.353489 85.730525 
L 166.852644 88.024672 
L 170.205218 90.528157 
L 173.398705 93.231644 
L 176.421191 96.125045 
L 179.261402 99.197568 
L 181.908742 102.43775 
L 184.353337 105.833506 
L 186.586065 109.372166 
L 188.598599 113.040531 
L 190.383431 116.824916 
L 191.933902 120.711204 
L 193.24423 124.684897 
L 194.309525 128.731172 
L 195.125814 132.834935 
L 195.690052 136.980876 
L 196.000134 141.15353 
L 196.054903 145.337332 
L 195.854155 149.516673 
L 195.398638 153.675964 
L 194.690053 157.799688 
L 193.731042 161.872463 
L 192.525183 165.879094 
L 191.076973 169.804637 
L 189.391817 173.634447 
L 187.475999 177.354237 
L 185.336667 180.950131 
L 182.981801 184.408714 
L 180.420186 187.717086 
L 177.661378 190.862904 
L 174.715668 193.834433 
L 171.594044 196.620589 
L 168.308152 199.210977 
L 164.87025 201.595934 
L 161.293162 203.766565 
L 157.590232 205.71477 
L 153.775274 207.433284 
L 149.862519 208.915694 
L 145.866563 210.156471 
L 141.802312 211.150987 
L 137.684928 211.895532 
L 133.529771 212.387327 
L 129.352341 212.624539 
L 125.16822 212.606282 
L 120.993019 212.332625 
L 116.842312 211.804588 
L 112.731582 211.024141 
L 108.676165 209.994197 
L 104.691188 208.718596 
L 100.791518 207.202097 
L 96.991702 205.450358 
L 93.305914 203.469912 
L 89.747905 201.268149 
L 86.330946 198.853281 
L 83.067784 196.234318 
L 79.970593 193.421027 
L 77.050926 190.423905 
L 74.319675 187.254132 
L 71.787028 183.923533 
L 69.462433 180.444531 
L 67.354562 176.830105 
L 65.471279 173.093738 
L 63.819607 169.249369 
L 62.40571 165.311338 
L 61.23486 161.294335 
L 60.311427 157.213347 
L 59.638854 153.083596 
L 59.219651 148.920489 
L 59.055382 144.739555 
L 59.146659 140.556391 
L 59.493142 136.386601 
L 60.093538 132.245741 
L 60.945608 128.149258 
L 62.046172 124.112434 
L 63.391126 120.150327 
L 64.975453 116.277717 
L 66.793241 112.509052 
L 68.837711 108.858389 
L 71.101234 105.339347 
L 73.575369 101.965054 
L 76.250884 98.748097 
L 79.117799 95.700476 
L 82.165419 92.833561 
L 85.382377 90.158046 
L 88.75667 87.683912 
L 92.275712 85.420388 
L 95.926375 83.375918 
L 99.69504 81.55813 
L 103.56765 79.973803 
L 107.529757 78.628849 
L 111.566581 77.528285 
L 115.663064 76.676215 
L 119.803924 76.075819 
L 123.973713 75.729336 
L 127.559055 75.635451 
L 127.559055 75.635451 
" clip-path="url(#p89e3353ec9)" style="fill: none; stroke: #b7b7b7; stroke-opacity: 0.78; stroke-width: 2; stroke-linecap: square"/>
   </g>
   <g id="line2d_2">
    <path d="M 127.559055 93.78281 
L 131.071916 93.905482 
L 134.567662 94.2729 
L 138.029264 94.883273 
L 141.439855 95.733629 
L 144.782821 96.819825 
L 148.041874 98.136568 
L 151.201137 99.677443 
L 154.245218 101.434944 
L 157.159287 103.400508 
L 159.929146 105.56456 
L 162.541302 107.916555 
L 164.983028 110.445036 
L 167.242427 113.137684 
L 169.308494 115.98138 
L 171.171161 118.962271 
L 172.821355 122.065834 
L 174.251035 125.276948 
L 175.453236 128.579969 
L 176.422102 131.958806 
L 177.152912 135.396997 
L 177.642106 138.877792 
L 177.8873 142.384231 
L 177.8873 145.899233 
L 177.642106 149.405673 
L 177.152912 152.886467 
L 176.422102 156.324658 
L 175.453236 159.703495 
L 174.251035 163.006517 
L 172.821355 166.217631 
L 171.171161 169.321193 
L 169.308494 172.302084 
L 167.242427 175.145781 
L 164.983028 177.838428 
L 162.541302 180.366909 
L 159.929146 182.718905 
L 157.159287 184.882956 
L 154.245218 186.84852 
L 151.201137 188.606021 
L 148.041874 190.146897 
L 144.782821 191.46364 
L 141.439855 192.549835 
L 138.029264 193.400191 
L 134.567662 194.010565 
L 131.071916 194.377983 
L 127.559055 194.500655 
L 124.046194 194.377983 
L 120.550448 194.010565 
L 117.088846 193.400191 
L 113.678255 192.549835 
L 110.335289 191.46364 
L 107.076236 190.146897 
L 103.916973 188.606021 
L 100.872892 186.84852 
L 97.958823 184.882956 
L 95.188964 182.718905 
L 92.576808 180.366909 
L 90.135083 177.838428 
L 87.875683 175.145781 
L 85.809616 172.302084 
L 83.946949 169.321193 
L 82.296756 166.217631 
L 80.867075 163.006517 
L 79.664874 159.703495 
L 78.696008 156.324658 
L 77.965198 152.886467 
L 77.476004 149.405673 
L 77.23081 145.899233 
L 77.23081 142.384231 
L 77.476004 138.877792 
L 77.965198 135.396997 
L 78.696008 131.958806 
L 79.664874 128.579969 
L 80.867075 125.276948 
L 82.296756 122.065834 
L 83.946949 118.962271 
L 85.809616 115.98138 
L 87.875683 113.137684 
L 90.135083 110.445036 
L 92.576808 107.916555 
L 95.188964 105.56456 
L 97.958823 103.400508 
L 100.872892 101.434944 
L 103.916973 99.677443 
L 107.076236 98.136568 
L 110.335289 96.819825 
L 113.678255 95.733629 
L 117.088846 94.883273 
L 120.550448 94.2729 
L 124.046194 93.905482 
L 127.559055 93.78281 
L 127.559055 93.78281 
" clip-path="url(#p89e3353ec9)" style="fill: none; stroke-dasharray: 5.76,4.32; stroke-dashoffset: 0; stroke: #b7b7b7; stroke-opacity: 0.78; stroke-width: 1.8"/>
   </g>
   <g id="line2d_3">
    <path d="M 127.559055 111.930169 
L 130.366478 112.052744 
L 133.152534 112.419535 
L 135.896021 113.027752 
L 138.576058 113.872764 
L 141.17225 114.948142 
L 143.664837 116.245701 
L 146.034849 117.755565 
L 148.264249 119.466244 
L 150.33607 121.364718 
L 152.234544 123.436539 
L 153.945223 125.665939 
L 155.455087 128.035951 
L 156.752645 130.528538 
L 157.828023 133.124729 
L 158.673036 135.804766 
L 159.281252 138.548253 
L 159.648043 141.33431 
L 159.770618 144.141732 
L 159.648043 146.949155 
L 159.281252 149.735211 
L 158.673036 152.478698 
L 157.828023 155.158736 
L 156.752645 157.754927 
L 155.455087 160.247514 
L 153.945223 162.617526 
L 152.234544 164.846926 
L 150.33607 166.918747 
L 148.264249 168.817221 
L 146.034849 170.5279 
L 143.664837 172.037764 
L 141.17225 173.335323 
L 138.576058 174.4107 
L 135.896021 175.255713 
L 133.152534 175.863929 
L 130.366478 176.23072 
L 127.559055 176.353295 
L 124.751632 176.23072 
L 121.965576 175.863929 
L 119.222089 175.255713 
L 116.542052 174.4107 
L 113.94586 173.335323 
L 111.453274 172.037764 
L 109.083262 170.5279 
L 106.853862 168.817221 
L 104.782041 166.918747 
L 102.883566 164.846926 
L 101.172888 162.617526 
L 99.663023 160.247514 
L 98.365465 157.754927 
L 97.290087 155.158736 
L 96.445075 152.478698 
L 95.836858 149.735211 
L 95.470067 146.949155 
L 95.347492 144.141732 
L 95.470067 141.33431 
L 95.836858 138.548253 
L 96.445075 135.804766 
L 97.290087 133.124729 
L 98.365465 130.528538 
L 99.663023 128.035951 
L 101.172888 125.665939 
L 102.883566 123.436539 
L 104.782041 121.364718 
L 106.853862 119.466244 
L 109.083262 117.755565 
L 111.453274 116.245701 
L 113.94586 114.948142 
L 116.542052 113.872764 
L 119.222089 113.027752 
L 121.965576 112.419535 
L 124.751632 112.052744 
L 127.559055 111.930169 
L 127.559055 111.930169 
" clip-path="url(#p89e3353ec9)" style="fill: none; stroke-dasharray: 5.76,4.32; stroke-dashoffset: 0; stroke: #b7b7b7; stroke-opacity: 0.78; stroke-width: 1.8"/>
   </g>
   <g id="line2d_4">
    <path d="M 127.559055 130.077529 
L 129.27305 130.182361 
L 130.961494 130.495296 
L 132.599215 131.011667 
L 134.161799 131.723778 
L 135.625951 132.621011 
L 136.969844 133.689992 
L 138.173444 134.914785 
L 139.218808 136.277129 
L 140.090352 137.756718 
L 140.775083 139.331491 
L 141.262794 140.977975 
L 141.546213 142.671623 
L 141.621117 144.387186 
L 141.486387 146.099091 
L 141.144033 147.781816 
L 140.599158 149.410276 
L 139.859885 150.960193 
L 138.937235 152.408464 
L 137.844962 153.733496 
L 136.599351 154.915537 
L 135.218969 155.936966 
L 133.724396 156.782555 
L 132.137912 157.439698 
L 130.483167 157.898599 
L 128.784831 158.152417 
L 127.068221 158.197368 
L 125.358929 158.032782 
L 123.682435 157.661112 
L 122.063733 157.0879 
L 120.526953 156.32169 
L 119.095006 155.373905 
L 117.789238 154.258674 
L 116.629116 152.992622 
L 115.631934 151.594625 
L 114.812558 150.085522 
L 114.183203 148.48781 
L 113.753251 146.825309 
L 113.529111 145.122802 
L 113.514126 143.405669 
L 113.708518 141.699509 
L 114.10939 140.029757 
L 114.710766 138.421305 
L 115.50368 136.898132 
L 116.476312 135.482944 
L 117.614161 134.196839 
L 118.900267 133.058989 
L 120.315455 132.086357 
L 121.838628 131.293443 
L 123.44708 130.692068 
L 125.116832 130.291196 
L 126.822992 130.096803 
L 127.559055 130.077529 
L 127.559055 130.077529 
" clip-path="url(#p89e3353ec9)" style="fill: none; stroke-dasharray: 5.76,4.32; stroke-dashoffset: 0; stroke: #b7b7b7; stroke-opacity: 0.78; stroke-width: 1.8"/>
   </g>
   <g id="matplotlib.axis_1"/>
   <g id="matplotlib.axis_2"/>
   <g id="patch_3">
    <path d="M 127.559055 56.943671 
C 142.864372 56.943671 157.903292 60.973337 171.158086 68.625996 
C 184.41288 76.278654 195.422133 87.287908 203.074792 100.542701 
C 210.72745 113.797495 214.757117 128.836415 214.757117 144.141732 
C 214.757117 159.44705 210.72745 174.48597 203.074792 187.740763 
L 220.126732 197.585706 
C 229.507411 181.337894 234.447002 162.903089 234.447002 144.141732 
C 234.447002 125.380376 229.507411 106.94557 220.126732 90.697759 
C 210.746054 74.449947 197.25084 60.954733 181.003028 51.574055 
C 164.755217 42.193377 146.320412 37.253786 127.559055 37.253786 
z
" clip-path="url(#p89e3353ec9)" style="fill: #dcefe3; stroke: #ffffff; stroke-width: 1.35; stroke-linejoin: miter"/>
   </g>
   <g id="patch_4">
    <path d="M 203.074792 187.740763 
C 195.422133 200.995557 184.41288 212.00481 171.158086 219.657469 
C 157.903292 227.310128 142.864372 231.339794 127.559055 231.339794 
C 112.253738 231.339794 97.214818 227.310128 83.960024 219.657469 
C 70.705231 212.00481 59.695977 200.995557 52.043318 187.740763 
L 34.991378 197.585706 
C 44.372056 213.833517 57.86727 227.328731 74.115082 236.709409 
C 90.362893 246.090088 108.797698 251.029679 127.559055 251.029679 
C 146.320412 251.029679 164.755217 246.090088 181.003028 236.709409 
C 197.25084 227.328731 210.746054 213.833517 220.126732 197.585706 
z
" clip-path="url(#p89e3353ec9)" style="fill: #dcefe3; stroke: #ffffff; stroke-width: 1.35; stroke-linejoin: miter"/>
   </g>
   <g id="patch_5">
    <path d="M 52.043318 187.740763 
C 44.39066 174.48597 40.360993 159.44705 40.360993 144.141732 
C 40.360993 128.836415 44.39066 113.797495 52.043318 100.542701 
C 59.695977 87.287908 70.705231 76.278654 83.960024 68.625996 
C 97.214818 60.973337 112.253738 56.943671 127.559055 56.943671 
L 127.559055 37.253786 
C 108.797698 37.253786 90.362893 42.193377 74.115082 51.574055 
C 57.86727 60.954733 44.372056 74.449947 34.991378 90.697759 
C 25.6107 106.94557 20.671108 125.380376 20.671108 144.141732 
C 20.671108 162.903089 25.6107 181.337894 34.991378 197.585706 
z
" clip-path="url(#p89e3353ec9)" style="fill: #dcefe3; stroke: #ffffff; stroke-width: 1.35; stroke-linejoin: miter"/>
   </g>
   <g id="patch_6">
    <path d="M 128.85868 76.456378 
C 130.39456 76.485869 131.928992 76.567628 133.45931 76.701513 
C 134.989627 76.835399 136.514945 77.021333 138.032612 77.258994 
L 138.157688 76.460275 
C 136.621897 76.219777 135.078364 76.031622 133.529771 75.896138 
C 131.981178 75.760653 130.428422 75.677918 128.874201 75.648076 
z
" clip-path="url(#p89e3353ec9)" style="fill: #55a868; opacity: 0.94; stroke: #ffffff; stroke-width: 0.35; stroke-linejoin: miter"/>
   </g>
   <g id="patch_7">
    <path d="M 140.389177 78.746053 
C 141.873101 79.037187 143.346686 79.378746 144.807373 79.770135 
C 146.268059 80.161525 147.715 80.602519 149.145683 81.092351 
L 149.749433 79.328942 
C 148.278736 78.82541 146.791325 78.372082 145.289786 77.969746 
C 143.788246 77.567409 142.273447 77.216298 140.748019 76.917021 
z
" clip-path="url(#p89e3353ec9)" style="fill: #55a868; opacity: 0.94; stroke: #ffffff; stroke-width: 0.35; stroke-linejoin: miter"/>
   </g>
   <g id="patch_8">
    <path d="M 150.857177 83.763237 
C 152.227254 84.291906 153.57894 84.867055 154.909886 85.487685 
C 156.240833 86.108316 157.55027 86.774068 158.835922 87.483786 
L 160.666934 84.166913 
C 159.306017 83.415646 157.919924 82.710919 156.511061 82.053956 
C 155.102198 81.396992 153.671382 80.788173 152.221098 80.228555 
z
" clip-path="url(#p89e3353ec9)" style="fill: #55a868; opacity: 0.94; stroke: #ffffff; stroke-width: 0.35; stroke-linejoin: miter"/>
   </g>
   <g id="patch_9">
    <path d="M 160.008077 90.350374 
C 161.228682 91.086691 162.423871 91.864339 163.591569 92.68197 
C 164.759266 93.499601 165.898796 94.35674 167.008178 95.251898 
L 170.578469 90.827188 
C 169.368684 89.851014 168.126023 88.916301 166.852644 88.024672 
C 165.579265 87.133042 164.275907 86.285014 162.944833 85.482058 
z
" clip-path="url(#p89e3353ec9)" style="fill: #55a868; opacity: 0.94; stroke: #ffffff; stroke-width: 0.35; stroke-linejoin: miter"/>
   </g>
   <g id="patch_10">
    <path d="M 168.148087 97.613651 
C 169.203878 98.534676 170.228013 99.49137 171.218715 100.482072 
C 172.209417 101.472774 173.166111 102.49691 174.087136 103.5527 
L 179.182881 99.107399 
C 178.160986 97.935978 177.099515 96.799679 176.000311 95.700476 
C 174.901108 94.601273 173.764809 93.539802 172.593389 92.517906 
z
" clip-path="url(#p89e3353ec9)" style="fill: #55a868; opacity: 0.94; stroke: #ffffff; stroke-width: 0.35; stroke-linejoin: miter"/>
   </g>
   <g id="patch_11">
    <path d="M 175.947879 105.096873 
C 176.833865 106.194887 177.68222 107.322739 178.491472 108.47847 
C 179.300724 109.634202 180.070403 110.817143 180.799174 112.025239 
L 186.218729 108.755955 
C 185.415774 107.42488 184.567745 106.121522 183.676116 104.848143 
C 182.784486 103.574765 181.849773 102.332104 180.873599 101.122318 
z
" clip-path="url(#p89e3353ec9)" style="fill: #55a868; opacity: 0.94; stroke: #ffffff; stroke-width: 0.35; stroke-linejoin: miter"/>
   </g>
   <g id="patch_12">
    <path d="M 186.452508 111.630799 
C 187.190229 112.967179 187.88225 114.32828 188.527368 115.711741 
C 189.172486 117.095202 189.770329 118.50022 190.319857 119.924355 
L 191.472233 119.47969 
C 190.912615 118.029406 190.303795 116.59859 189.646832 115.189727 
C 188.989868 113.780864 188.285141 112.39477 187.533875 111.033853 
z
" clip-path="url(#p89e3353ec9)" style="fill: #55a868; opacity: 0.94; stroke: #ffffff; stroke-width: 0.35; stroke-linejoin: miter"/>
   </g>
   <g id="patch_13">
    <path d="M 191.075967 122.395033 
C 191.569432 123.836325 192.013696 125.293995 192.407988 126.765513 
C 192.80228 128.237031 193.146371 129.721543 193.439665 131.216471 
L 194.783767 130.952768 
C 194.48449 129.427341 194.133378 127.912542 193.731042 126.411002 
C 193.328705 124.909462 192.875377 123.422052 192.371845 121.951354 
z
" clip-path="url(#p89e3353ec9)" style="fill: #55a868; opacity: 0.94; stroke: #ffffff; stroke-width: 0.35; stroke-linejoin: miter"/>
   </g>
   <g id="patch_14">
    <path d="M 193.16083 133.868768 
C 193.393939 135.357369 193.576312 136.853473 193.707634 138.354482 
C 193.838955 139.85549 193.919148 141.360534 193.948073 142.866998 
L 196.052712 142.826587 
C 196.022869 141.272365 195.940134 139.719609 195.80465 138.171016 
C 195.669165 136.622424 195.48101 135.078891 195.240512 133.543099 
z
" clip-path="url(#p89e3353ec9)" style="fill: #55a868; opacity: 0.94; stroke: #ffffff; stroke-width: 0.35; stroke-linejoin: miter"/>
   </g>
   <g id="patch_15">
    <path d="M 193.260225 145.403259 
C 193.231599 146.894115 193.152237 148.383565 193.022276 149.869022 
C 192.892316 151.354479 192.711832 152.835082 192.481138 154.308259 
L 195.240512 154.740366 
C 195.48101 153.204574 195.669165 151.661041 195.80465 150.112448 
C 195.940134 148.563855 196.022869 147.011099 196.052712 145.456878 
z
" clip-path="url(#p89e3353ec9)" style="fill: #55a868; opacity: 0.94; stroke: #ffffff; stroke-width: 0.35; stroke-linejoin: miter"/>
   </g>
   <g id="patch_16">
    <path d="M 193.58596 157.095696 
C 193.292016 158.593944 192.94716 160.081752 192.551993 161.556537 
C 192.156825 163.031323 191.711574 164.49223 191.217014 165.936723 
L 192.371845 166.33211 
C 192.875377 164.861413 193.328705 163.374002 193.731042 161.872463 
C 194.133378 160.370923 194.48449 158.856124 194.783767 157.330696 
z
" clip-path="url(#p89e3353ec9)" style="fill: #55a868; opacity: 0.94; stroke: #ffffff; stroke-width: 0.35; stroke-linejoin: miter"/>
   </g>
   <g id="patch_17">
    <path d="M 191.157682 168.6824 
C 190.600818 170.125546 189.994995 171.549321 189.341265 172.95125 
C 188.687535 174.353179 187.986276 175.732451 187.238707 177.08667 
L 187.533875 177.249611 
C 188.285141 175.888695 188.989868 174.502601 189.646832 173.093738 
C 190.303795 171.684875 190.912615 170.254059 191.472233 168.803775 
z
" clip-path="url(#p89e3353ec9)" style="fill: #55a868; opacity: 0.94; stroke: #ffffff; stroke-width: 0.35; stroke-linejoin: miter"/>
   </g>
   <g id="patch_18">
    <path d="M 185.094285 178.849202 
C 184.306721 180.154761 183.474948 181.433135 182.600411 182.682104 
C 181.725873 183.931074 180.809077 185.149914 179.851616 186.336509 
L 180.873599 187.161146 
C 181.849773 185.951361 182.784486 184.7087 183.676116 183.435321 
C 184.567745 182.161943 185.415774 180.858584 186.218729 179.52751 
z
" clip-path="url(#p89e3353ec9)" style="fill: #55a868; opacity: 0.94; stroke: #ffffff; stroke-width: 0.35; stroke-linejoin: miter"/>
   </g>
   <g id="patch_19">
    <path d="M 175.931888 186.340044 
C 174.974347 187.437695 173.979721 188.502436 172.94974 189.532417 
C 171.919758 190.562398 170.855018 191.557024 169.757367 192.514565 
L 172.593389 195.765558 
C 173.764809 194.743663 174.901108 193.682192 176.000311 192.582989 
C 177.099515 191.483785 178.160986 190.347487 179.182881 189.176066 
z
" clip-path="url(#p89e3353ec9)" style="fill: #55a868; opacity: 0.94; stroke: #ffffff; stroke-width: 0.35; stroke-linejoin: miter"/>
   </g>
   <g id="patch_20">
    <path d="M 160.035492 184.390221 
C 159.122194 185.127159 158.184078 185.832798 157.222773 186.505911 
C 156.261467 187.179025 155.277529 187.819223 154.272668 188.425394 
L 162.944833 202.801406 
C 164.275907 201.998451 165.579265 201.150422 166.852644 200.258793 
C 168.126023 199.367164 169.368684 198.43245 170.578469 197.456277 
z
" clip-path="url(#p89e3353ec9)" style="fill: #55a868; opacity: 0.94; stroke: #ffffff; stroke-width: 0.35; stroke-linejoin: miter"/>
   </g>
   <g id="patch_21">
    <path d="M 150.843303 186.321074 
C 149.886192 186.849428 148.911374 187.345052 147.920543 187.807084 
C 146.929712 188.269116 145.923442 188.697289 144.90348 189.090859 
L 152.221098 208.05491 
C 153.671382 207.495292 155.102198 206.886472 156.511061 206.229509 
C 157.919924 205.572545 159.306017 204.867818 160.666934 204.116552 
z
" clip-path="url(#p89e3353ec9)" style="fill: #55a868; opacity: 0.94; stroke: #ffffff; stroke-width: 0.35; stroke-linejoin: miter"/>
   </g>
   <g id="patch_22">
    <path d="M 141.260966 184.161741 
C 140.352854 184.472657 139.434421 184.752574 138.507264 185.001005 
C 137.580107 185.249436 136.644763 185.466237 135.702856 185.651032 
L 140.748019 211.366444 
C 142.273447 211.067167 143.788246 210.716055 145.289786 210.313719 
C 146.791325 209.911383 148.278736 209.458055 149.749433 208.954522 
z
" clip-path="url(#p89e3353ec9)" style="fill: #55a868; opacity: 0.94; stroke: #ffffff; stroke-width: 0.35; stroke-linejoin: miter"/>
   </g>
   <g id="patch_23">
    <path d="M 136.676542 202.364788 
C 135.355376 202.571678 134.02755 202.733538 132.695371 202.850089 
C 131.363192 202.966639 130.027432 203.037812 128.690411 203.063484 
L 128.874201 212.635389 
C 130.428422 212.605546 131.981178 212.522811 133.529771 212.387327 
C 135.078364 212.251843 136.621897 212.063688 138.157688 211.823189 
z
" clip-path="url(#p89e3353ec9)" style="fill: #55a868; opacity: 0.94; stroke: #ffffff; stroke-width: 0.35; stroke-linejoin: miter"/>
   </g>
   <g id="patch_24">
    <path d="M 126.279869 210.762598 
C 124.768144 210.733571 123.257844 210.653098 121.751594 210.521318 
C 120.245343 210.389538 118.744015 210.206528 117.250215 209.972605 
L 116.960422 211.823189 
C 118.496214 212.063688 120.039746 212.251843 121.588339 212.387327 
C 123.136932 212.522811 124.689688 212.605546 126.24391 212.635389 
z
" clip-path="url(#p89e3353ec9)" style="fill: #55a868; opacity: 0.94; stroke: #ffffff; stroke-width: 0.35; stroke-linejoin: miter"/>
   </g>
   <g id="patch_25">
    <path d="M 114.820828 209.06902 
C 113.347532 208.779971 111.884502 208.440859 110.434278 208.052272 
C 108.984053 207.663686 107.547476 207.225851 106.12704 206.739527 
L 105.368677 208.954522 
C 106.839375 209.458055 108.326785 209.911383 109.828325 210.313719 
C 111.329864 210.716055 112.844664 211.067167 114.370091 211.366444 
z
" clip-path="url(#p89e3353ec9)" style="fill: #55a868; opacity: 0.94; stroke: #ffffff; stroke-width: 0.35; stroke-linejoin: miter"/>
   </g>
   <g id="patch_26">
    <path d="M 104.46012 204.004023 
C 103.101756 203.479874 101.761627 202.909642 100.442059 202.294317 
C 99.122492 201.678993 97.82425 201.018932 96.54959 200.315282 
L 94.451176 204.116552 
C 95.812093 204.867818 97.198187 205.572545 98.607049 206.229509 
C 100.015912 206.886472 101.446728 207.495292 102.897012 208.05491 
z
" clip-path="url(#p89e3353ec9)" style="fill: #55a868; opacity: 0.94; stroke: #ffffff; stroke-width: 0.35; stroke-linejoin: miter"/>
   </g>
   <g id="patch_27">
    <path d="M 94.354617 199.185358 
C 93.105596 198.431901 91.882583 197.636148 90.687701 196.799483 
C 89.492819 195.962818 88.326762 195.085724 87.191553 194.169726 
L 84.539641 197.456277 
C 85.749426 198.43245 86.992088 199.367164 88.265466 200.258793 
C 89.538845 201.150422 90.842203 201.998451 92.173277 202.801406 
z
" clip-path="url(#p89e3353ec9)" style="fill: #55a868; opacity: 0.94; stroke: #ffffff; stroke-width: 0.35; stroke-linejoin: miter"/>
   </g>
   <g id="patch_28">
    <path d="M 84.406065 193.608934 
C 83.283581 192.629729 82.194752 191.612602 81.141469 190.559318 
C 80.088186 189.506035 79.071058 188.417206 78.091854 187.294723 
L 75.935229 189.176066 
C 76.957124 190.347487 78.018596 191.483785 79.117799 192.582989 
C 80.217002 193.682192 81.353301 194.743663 82.524721 195.765558 
z
" clip-path="url(#p89e3353ec9)" style="fill: #55a868; opacity: 0.94; stroke: #ffffff; stroke-width: 0.35; stroke-linejoin: miter"/>
   </g>
   <g id="patch_29">
    <path d="M 74.353794 187.072966 
C 73.379621 185.86566 72.446824 184.625546 71.557022 183.354778 
C 70.66722 182.08401 69.82093 180.783323 69.01962 179.454977 
L 68.899381 179.52751 
C 69.702336 180.858584 70.550365 182.161943 71.441994 183.435321 
C 72.333624 184.7087 73.268337 185.951361 74.244511 187.161146 
z
" clip-path="url(#p89e3353ec9)" style="fill: #55a868; opacity: 0.94; stroke: #ffffff; stroke-width: 0.35; stroke-linejoin: miter"/>
   </g>
   <g id="patch_30">
    <path d="M 71.806211 174.918956 
C 71.10783 173.653842 70.452713 172.365324 69.841997 171.055639 
C 69.231281 169.745954 68.665319 168.415861 68.145096 167.067671 
L 63.645878 168.803775 
C 64.205496 170.254059 64.814315 171.684875 65.471279 173.093738 
C 66.128242 174.502601 66.832969 175.888695 67.584236 177.249611 
z
" clip-path="url(#p89e3353ec9)" style="fill: #55a868; opacity: 0.94; stroke: #ffffff; stroke-width: 0.35; stroke-linejoin: miter"/>
   </g>
   <g id="patch_31">
    <path d="M 70.881856 163.546675 
C 70.441529 162.260586 70.045105 160.959882 69.693271 159.646822 
C 69.341438 158.333763 69.0344 157.009108 68.772689 155.675159 
L 60.334344 157.330696 
C 60.633621 158.856124 60.984732 160.370923 61.387068 161.872463 
C 61.789405 163.374002 62.242733 164.861413 62.746265 166.33211 
z
" clip-path="url(#p89e3353ec9)" style="fill: #55a868; opacity: 0.94; stroke: #ffffff; stroke-width: 0.35; stroke-linejoin: miter"/>
   </g>
   <g id="patch_32">
    <path d="M 81.617113 151.336048 
C 81.453864 150.293558 81.326145 149.245813 81.234179 148.194634 
C 81.142212 147.143454 81.086052 146.089449 81.065795 145.034448 
L 59.065398 145.456878 
C 59.095241 147.011099 59.177976 148.563855 59.313461 150.112448 
C 59.448945 151.661041 59.6371 153.204574 59.877598 154.740366 
z
" clip-path="url(#p89e3353ec9)" style="fill: #55a868; opacity: 0.94; stroke: #ffffff; stroke-width: 0.35; stroke-linejoin: miter"/>
   </g>
   <g id="patch_33">
    <path d="M 85.217398 143.328731 
C 85.235846 142.367936 85.286992 141.408048 85.370746 140.450733 
C 85.4545 139.493419 85.570814 138.539232 85.719487 137.589831 
L 59.877598 133.543099 
C 59.6371 135.078891 59.448945 136.622424 59.313461 138.171016 
C 59.177976 139.719609 59.095241 141.272365 59.065398 142.826587 
z
" clip-path="url(#p89e3353ec9)" style="fill: #55a868; opacity: 0.94; stroke: #ffffff; stroke-width: 0.35; stroke-linejoin: miter"/>
   </g>
   <g id="patch_34">
    <path d="M 79.739653 134.759939 
C 79.952539 133.674846 80.202298 132.597314 80.488494 131.529214 
C 80.774691 130.461113 81.09716 129.403064 81.455341 128.356903 
L 62.746265 121.951354 
C 62.242733 123.422052 61.789405 124.909462 61.387068 126.411002 
C 60.984732 127.912542 60.633621 129.427341 60.334344 130.952768 
z
" clip-path="url(#p89e3353ec9)" style="fill: #55a868; opacity: 0.94; stroke: #ffffff; stroke-width: 0.35; stroke-linejoin: miter"/>
   </g>
   <g id="patch_35">
    <path d="M 74.091938 123.510489 
C 74.560091 122.297241 75.069404 121.10028 75.618993 119.921684 
C 76.168582 118.743087 76.758127 117.583539 77.386605 116.445052 
L 67.584236 111.033853 
C 66.832969 112.39477 66.128242 113.780864 65.471279 115.189727 
C 64.814315 116.59859 64.205496 118.029406 63.645878 119.47969 
z
" clip-path="url(#p89e3353ec9)" style="fill: #55a868; opacity: 0.94; stroke: #ffffff; stroke-width: 0.35; stroke-linejoin: miter"/>
   </g>
   <g id="patch_36">
    <path d="M 75.346951 112.645377 
C 76.061649 111.460608 76.816467 110.300508 77.610093 109.167092 
C 78.403719 108.033677 79.235693 106.927603 80.104571 105.850791 
L 74.244511 101.122318 
C 73.268337 102.332104 72.333624 103.574765 71.441994 104.848143 
C 70.550365 106.121522 69.702336 107.42488 68.899381 108.755955 
z
" clip-path="url(#p89e3353ec9)" style="fill: #55a868; opacity: 0.94; stroke: #ffffff; stroke-width: 0.35; stroke-linejoin: miter"/>
   </g>
   <g id="patch_37">
    <path d="M 79.203187 101.95822 
C 80.160393 100.860954 81.15467 99.796587 82.18429 98.766967 
C 83.21391 97.737347 84.278277 96.74307 85.375543 95.785865 
L 82.524721 92.517906 
C 81.353301 93.539802 80.217002 94.601273 79.117799 95.700476 
C 78.018596 96.799679 76.957124 97.935978 75.935229 99.107399 
z
" clip-path="url(#p89e3353ec9)" style="fill: #55a868; opacity: 0.94; stroke: #ffffff; stroke-width: 0.35; stroke-linejoin: miter"/>
   </g>
   <g id="patch_38">
    <path d="M 87.993201 95.107232 
C 89.105866 94.209424 90.248767 93.349749 91.41992 92.529699 
C 92.591073 91.709649 93.789799 90.929699 95.014016 90.191204 
L 92.173277 85.482058 
C 90.842203 86.285014 89.538845 87.133042 88.265466 88.024672 
C 86.992088 88.916301 85.749426 89.851014 84.539641 90.827188 
z
" clip-path="url(#p89e3353ec9)" style="fill: #55a868; opacity: 0.94; stroke: #ffffff; stroke-width: 0.35; stroke-linejoin: miter"/>
   </g>
   <g id="patch_39">
    <path d="M 98.055588 90.696294 
C 99.268344 90.026817 100.503535 89.398813 101.759017 88.813372 
C 103.014499 88.227931 104.289544 87.685393 105.581937 87.1867 
L 102.897012 80.228555 
C 101.446728 80.788173 100.015912 81.396992 98.607049 82.053956 
C 97.198187 82.710919 95.812093 83.415646 94.451176 84.166913 
z
" clip-path="url(#p89e3353ec9)" style="fill: #55a868; opacity: 0.94; stroke: #ffffff; stroke-width: 0.35; stroke-linejoin: miter"/>
   </g>
   <g id="patch_40">
    <path d="M 105.579072 79.943454 
C 107.035825 79.444696 108.509133 78.995666 109.996436 78.597144 
C 111.483739 78.198623 112.984176 77.85084 114.49514 77.554401 
L 114.370091 76.917021 
C 112.844664 77.216298 111.329864 77.567409 109.828325 77.969746 
C 108.326785 78.372082 106.839375 78.82541 105.368677 79.328942 
z
" clip-path="url(#p89e3353ec9)" style="fill: #55a868; opacity: 0.94; stroke: #ffffff; stroke-width: 0.35; stroke-linejoin: miter"/>
   </g>
   <g id="patch_41">
    <path d="M 117.077562 77.208318 
C 118.59638 76.970478 120.122853 76.784402 121.65433 76.650415 
C 123.185807 76.516428 124.721401 76.434608 126.258445 76.405095 
L 126.24391 75.648076 
C 124.689688 75.677918 123.136932 75.760653 121.588339 75.896138 
C 120.039746 76.031622 118.496214 76.219777 116.960422 76.460275 
z
" clip-path="url(#p89e3353ec9)" style="fill: #55a868; opacity: 0.94; stroke: #ffffff; stroke-width: 0.35; stroke-linejoin: miter"/>
   </g>
   <g id="text_1">
    <text style="font-weight: 700; font-size: 15.5px; font-family: 'Times New Roman', 'Arial', 'Times', 'DejaVu Serif', serif; text-anchor: middle; fill: #333333" x="127.559055" y="26.440945" transform="rotate(-0 127.559055 26.440945)">Carbon reduction rate</text>
   </g>
   <g id="line2d_5">
    <path d="M 127.559055 56.943671 
L 132.122649 57.063172 
L 136.673735 57.421351 
L 141.199837 58.017223 
L 145.688552 58.849157 
L 150.127574 59.914872 
L 154.504738 61.211447 
L 158.808046 62.735329 
L 163.025702 64.482339 
L 167.146147 66.44769 
L 171.158086 68.625996 
L 175.050523 71.011284 
L 178.81279 73.597018 
L 182.434573 76.376111 
L 185.905947 79.340944 
L 189.217396 82.483391 
L 192.359844 85.79484 
L 195.324677 89.266214 
L 198.103769 92.887998 
L 200.689503 96.650264 
L 203.074792 100.542701 
L 205.253097 104.554641 
L 207.218448 108.675085 
L 208.965459 112.892742 
L 210.48934 117.196049 
L 211.785915 121.573213 
L 212.85163 126.012236 
L 213.683564 130.50095 
L 214.279437 135.027053 
L 214.637615 139.578138 
L 214.757117 144.141732 
L 214.637615 148.705326 
L 214.279437 153.256412 
L 213.683564 157.782514 
L 212.85163 162.271229 
L 211.785915 166.710251 
L 210.48934 171.087415 
L 208.965459 175.390723 
L 207.218448 179.608379 
L 205.253097 183.728824 
L 203.074792 187.740763 
L 200.689503 191.633201 
L 198.103769 195.395467 
L 195.324677 199.017251 
L 192.359844 202.488624 
L 189.217396 205.800073 
L 185.905947 208.942521 
L 182.434573 211.907354 
L 178.81279 214.686446 
L 175.050523 217.27218 
L 171.158086 219.657469 
L 167.146147 221.835774 
L 163.025702 223.801126 
L 158.808046 225.548136 
L 154.504738 227.072017 
L 150.127574 228.368592 
L 145.688552 229.434307 
L 141.199837 230.266241 
L 136.673735 230.862114 
L 132.122649 231.220292 
L 127.559055 231.339794 
L 122.995461 231.220292 
L 118.444376 230.862114 
L 113.918273 230.266241 
L 109.429559 229.434307 
L 104.990536 228.368592 
L 100.613372 227.072017 
L 96.310065 225.548136 
L 92.092408 223.801126 
L 87.971963 221.835774 
L 83.960024 219.657469 
L 80.067587 217.27218 
L 76.30532 214.686446 
L 72.683537 211.907354 
L 69.212163 208.942521 
L 65.900714 205.800073 
L 62.758267 202.488624 
L 59.793434 199.017251 
L 57.014341 195.395467 
L 54.428607 191.633201 
L 52.043318 187.740763 
L 49.865013 183.728824 
L 47.899662 179.608379 
L 46.152651 175.390723 
L 44.62877 171.087415 
L 43.332195 166.710251 
L 42.26648 162.271229 
L 41.434546 157.782514 
L 40.838673 153.256412 
L 40.480495 148.705326 
L 40.360993 144.141732 
L 40.480495 139.578138 
L 40.838673 135.027053 
L 41.434546 130.50095 
L 42.26648 126.012236 
L 43.332195 121.573213 
L 44.62877 117.196049 
L 46.152651 112.892742 
L 47.899662 108.675085 
L 49.865013 104.554641 
L 52.043318 100.542701 
L 54.428607 96.650264 
L 57.014341 92.887998 
L 59.793434 89.266214 
L 62.758267 85.79484 
L 65.900714 82.483391 
L 69.212163 79.340944 
L 72.683537 76.376111 
L 76.30532 73.597018 
L 80.067587 71.011284 
L 83.960024 68.625996 
L 87.971963 66.44769 
L 92.092408 64.482339 
L 96.310065 62.735329 
L 100.613372 61.211447 
L 104.990536 59.914872 
L 109.429559 58.849157 
L 113.918273 58.017223 
L 118.444376 57.421351 
L 122.995461 57.063172 
L 127.559055 56.943671 
L 127.559055 56.943671 
" clip-path="url(#p89e3353ec9)" style="fill: none; stroke: #55a868; stroke-width: 0.7; stroke-linecap: square"/>
   </g>
   <g id="line2d_6">
    <path d="M 127.559055 37.253786 
L 132.221442 37.355519 
L 136.874954 37.660526 
L 141.510732 38.168227 
L 146.119952 38.877654 
L 150.693841 39.787457 
L 155.223691 40.895904 
L 159.700881 42.200886 
L 164.116886 43.699918 
L 168.463301 45.390146 
L 172.731853 47.268354 
L 176.914416 49.330966 
L 181.003028 51.574055 
L 184.989907 53.993352 
L 188.867463 56.584252 
L 192.628314 59.341823 
L 196.265303 62.260815 
L 199.771505 65.335672 
L 203.140247 68.56054 
L 206.365116 71.929282 
L 209.439973 75.435485 
L 212.358965 79.072473 
L 215.116535 82.833325 
L 217.707435 86.71088 
L 220.126732 90.697759 
L 222.369822 94.786371 
L 224.432434 98.968934 
L 226.310641 103.237486 
L 228.00087 107.583901 
L 229.499902 111.999907 
L 230.804883 116.477096 
L 231.913331 121.006946 
L 232.823134 125.580835 
L 233.532561 130.190056 
L 234.040261 134.825834 
L 234.345268 139.479346 
L 234.447002 144.141732 
L 234.345268 148.804119 
L 234.040261 153.457631 
L 233.532561 158.093409 
L 232.823134 162.702629 
L 231.913331 167.276518 
L 230.804883 171.806369 
L 229.499902 176.283558 
L 228.00087 180.699563 
L 226.310641 185.045979 
L 224.432434 189.314531 
L 222.369822 193.497093 
L 220.126732 197.585706 
L 217.707435 201.572584 
L 215.116535 205.45014 
L 212.358965 209.210991 
L 209.439973 212.84798 
L 206.365116 216.354182 
L 203.140247 219.722924 
L 199.771505 222.947793 
L 196.265303 226.02265 
L 192.628314 228.941642 
L 188.867463 231.699212 
L 184.989907 234.290112 
L 181.003028 236.709409 
L 176.914416 238.952499 
L 172.731853 241.015111 
L 168.463301 242.893319 
L 164.116886 244.583547 
L 159.700881 246.082579 
L 155.223691 247.387561 
L 150.693841 248.496008 
L 146.119952 249.405811 
L 141.510732 250.115238 
L 136.874954 250.622938 
L 132.221442 250.927945 
L 127.559055 251.029679 
L 122.896668 250.927945 
L 118.243157 250.622938 
L 113.607378 250.115238 
L 108.998158 249.405811 
L 104.424269 248.496008 
L 99.894419 247.387561 
L 95.41723 246.082579 
L 91.001224 244.583547 
L 86.654809 242.893319 
L 82.386257 241.015111 
L 78.203694 238.952499 
L 74.115082 236.709409 
L 70.128203 234.290112 
L 66.250648 231.699212 
L 62.489796 228.941642 
L 58.852807 226.02265 
L 55.346605 222.947793 
L 51.977863 219.722924 
L 48.752994 216.354182 
L 45.678138 212.84798 
L 42.759146 209.210991 
L 40.001575 205.45014 
L 37.410675 201.572584 
L 34.991378 197.585706 
L 32.748288 193.497093 
L 30.685677 189.314531 
L 28.807469 185.045979 
L 27.11724 180.699563 
L 25.618209 176.283558 
L 24.313227 171.806369 
L 23.20478 167.276518 
L 22.294977 162.702629 
L 21.58555 158.093409 
L 21.077849 153.457631 
L 20.772842 148.804119 
L 20.671108 144.141732 
L 20.772842 139.479346 
L 21.077849 134.825834 
L 21.58555 130.190056 
L 22.294977 125.580835 
L 23.20478 121.006946 
L 24.313227 116.477096 
L 25.618209 111.999907 
L 27.11724 107.583901 
L 28.807469 103.237486 
L 30.685677 98.968934 
L 32.748288 94.786371 
L 34.991378 90.697759 
L 37.410675 86.71088 
L 40.001575 82.833325 
L 42.759146 79.072473 
L 45.678138 75.435485 
L 48.752994 71.929282 
L 51.977863 68.56054 
L 55.346605 65.335672 
L 58.852807 62.260815 
L 62.489796 59.341823 
L 66.250648 56.584252 
L 70.128203 53.993352 
L 74.115082 51.574055 
L 78.203694 49.330966 
L 82.386257 47.268354 
L 86.654809 45.390146 
L 91.001224 43.699918 
L 95.41723 42.200886 
L 99.894419 40.895904 
L 104.424269 39.787457 
L 108.998158 38.877654 
L 113.607378 38.168227 
L 118.243157 37.660526 
L 122.896668 37.355519 
L 127.559055 37.253786 
L 127.559055 37.253786 
" clip-path="url(#p89e3353ec9)" style="fill: none; stroke: #55a868; stroke-width: 0.7; stroke-linecap: square"/>
   </g>
   <g id="patch_42">
    <path d="M 127.559055 158.205936 
C 131.288925 158.205936 134.866532 156.724043 137.503949 154.086626 
C 140.141365 151.449209 141.623259 147.871603 141.623259 144.141732 
C 141.623259 140.411862 140.141365 136.834255 137.503949 134.196839 
C 134.866532 131.559422 131.288925 130.077529 127.559055 130.077529 
C 123.829185 130.077529 120.251578 131.559422 117.614161 134.196839 
C 114.976745 136.834255 113.494852 140.411862 113.494852 144.141732 
C 113.494852 147.871603 114.976745 151.449209 117.614161 154.086626 
C 120.251578 156.724043 123.829185 158.205936 127.559055 158.205936 
L 127.559055 158.205936 
z
" clip-path="url(#p89e3353ec9)" style="fill: none; opacity: 0.75; stroke: #b7b7b7; stroke-width: 1.1; stroke-linejoin: miter"/>
   </g>
   <g id="line2d_7">
    <path d="M 127.559055 130.077529 
L 127.559055 37.253786 
" clip-path="url(#p89e3353ec9)" style="fill: none; stroke: #ffffff; stroke-width: 1.35"/>
   </g>
   <g id="line2d_8">
    <path d="M 139.739013 151.173834 
L 220.126732 197.585706 
" clip-path="url(#p89e3353ec9)" style="fill: none; stroke: #ffffff; stroke-width: 1.35"/>
   </g>
   <g id="line2d_9">
    <path d="M 115.379098 151.173834 
L 34.991378 197.585706 
" clip-path="url(#p89e3353ec9)" style="fill: none; stroke: #ffffff; stroke-width: 1.35"/>
   </g>
   <g id="text_2">
    <text style="font-weight: 600; font-size: 9.4px; font-family: 'Times New Roman'; text-anchor: middle; fill: #333333" x="86.307441" y="175.133345" transform="rotate(-0 86.307441 175.133345)">5%</text>
   </g>
   <g id="text_3">
    <text style="font-weight: 600; font-size: 9.4px; font-family: 'Times New Roman'; text-anchor: middle; fill: #333333" x="106.853862" y="170.924143" transform="rotate(-0 106.853862 170.924143)">10%</text>
   </g>
   <g id="text_4">
    <text style="font-weight: 600; font-size: 9.4px; font-family: 'Times New Roman'; text-anchor: middle; fill: #333333" x="122.290512" y="159.288757" transform="rotate(-0 122.290512 159.288757)">15%</text>
   </g>
   <g id="text_5">
    <text style="font-weight: 600; font-size: 7.2px; font-family: 'Times New Roman', 'Arial', 'Times', 'DejaVu Serif', serif; text-anchor: middle; fill: #333333" x="136.031073" y="65.822549" transform="rotate(-85 136.031073 65.822549)">JAN</text>
   </g>
   <g id="text_6">
    <text style="font-weight: 600; font-size: 7.2px; font-family: 'Times New Roman', 'Arial', 'Times', 'DejaVu Serif', serif; text-anchor: middle; fill: #333333" x="149.502347" y="68.483544" transform="rotate(-75 149.502347 68.483544)">FEB</text>
   </g>
   <g id="text_7">
    <text style="font-weight: 600; font-size: 7.2px; font-family: 'Times New Roman', 'Arial', 'Times', 'DejaVu Serif', serif; text-anchor: middle; fill: #333333" x="162.306886" y="73.443375" transform="rotate(-65 162.306886 73.443375)">MAR</text>
   </g>
   <g id="text_8">
    <text style="font-weight: 600; font-size: 7.2px; font-family: 'Times New Roman', 'Arial', 'Times', 'DejaVu Serif', serif; text-anchor: middle; fill: #333333" x="174.055629" y="80.551339" transform="rotate(-55 174.055629 80.551339)">APR</text>
   </g>
   <g id="text_9">
    <text style="font-weight: 600; font-size: 7.2px; font-family: 'Times New Roman', 'Arial', 'Times', 'DejaVu Serif', serif; text-anchor: middle; fill: #333333" x="184.391597" y="89.591465" transform="rotate(-45 184.391597 89.591465)">MAY</text>
   </g>
   <g id="text_10">
    <text style="font-weight: 600; font-size: 7.2px; font-family: 'Times New Roman', 'Arial', 'Times', 'DejaVu Serif', serif; text-anchor: middle; fill: #333333" x="193.000738" y="100.289074" transform="rotate(-35 193.000738 100.289074)">JUN</text>
   </g>
   <g id="text_11">
    <text style="font-weight: 600; font-size: 7.2px; font-family: 'Times New Roman', 'Arial', 'Times', 'DejaVu Serif', serif; text-anchor: middle; fill: #333333" x="199.621466" y="112.319123" transform="rotate(-25 199.621466 112.319123)">JUL</text>
   </g>
   <g id="text_12">
    <text style="font-weight: 600; font-size: 7.2px; font-family: 'Times New Roman', 'Arial', 'Times', 'DejaVu Serif', serif; text-anchor: middle; fill: #333333" x="204.052614" y="125.316087" transform="rotate(-15 204.052614 125.316087)">AUG</text>
   </g>
   <g id="text_13">
    <text style="font-weight: 600; font-size: 7.2px; font-family: 'Times New Roman', 'Arial', 'Times', 'DejaVu Serif', serif; text-anchor: middle; fill: #333333" x="206.159544" y="138.885058" transform="rotate(-5 206.159544 138.885058)">SEP</text>
   </g>
   <g id="text_14">
    <text style="font-weight: 600; font-size: 7.2px; font-family: 'Times New Roman', 'Arial', 'Times', 'DejaVu Serif', serif; text-anchor: middle; fill: #333333" x="205.878238" y="152.61375" transform="rotate(-355 205.878238 152.61375)">OCT</text>
   </g>
   <g id="text_15">
    <text style="font-weight: 600; font-size: 7.2px; font-family: 'Times New Roman', 'Arial', 'Times', 'DejaVu Serif', serif; text-anchor: middle; fill: #333333" x="203.217243" y="166.085024" transform="rotate(-345 203.217243 166.085024)">NOV</text>
   </g>
   <g id="text_16">
    <text style="font-weight: 600; font-size: 7.2px; font-family: 'Times New Roman', 'Arial', 'Times', 'DejaVu Serif', serif; text-anchor: middle; fill: #333333" x="198.257413" y="178.889563" transform="rotate(-335 198.257413 178.889563)">DEC</text>
   </g>
   <g id="text_17">
    <text style="font-weight: 600; font-size: 7.2px; font-family: 'Times New Roman', 'Arial', 'Times', 'DejaVu Serif', serif; text-anchor: middle; fill: #333333" x="191.149448" y="190.638306" transform="rotate(-325 191.149448 190.638306)">JAN</text>
   </g>
   <g id="text_18">
    <text style="font-weight: 600; font-size: 7.2px; font-family: 'Times New Roman', 'Arial', 'Times', 'DejaVu Serif', serif; text-anchor: middle; fill: #333333" x="182.109322" y="200.974275" transform="rotate(-315 182.109322 200.974275)">FEB</text>
   </g>
   <g id="text_19">
    <text style="font-weight: 600; font-size: 7.2px; font-family: 'Times New Roman', 'Arial', 'Times', 'DejaVu Serif', serif; text-anchor: middle; fill: #333333" x="171.411713" y="209.583415" transform="rotate(-305 171.411713 209.583415)">MAR</text>
   </g>
   <g id="text_20">
    <text style="font-weight: 600; font-size: 7.2px; font-family: 'Times New Roman', 'Arial', 'Times', 'DejaVu Serif', serif; text-anchor: middle; fill: #333333" x="159.381664" y="216.204143" transform="rotate(-295 159.381664 216.204143)">APR</text>
   </g>
   <g id="text_21">
    <text style="font-weight: 600; font-size: 7.2px; font-family: 'Times New Roman', 'Arial', 'Times', 'DejaVu Serif', serif; text-anchor: middle; fill: #333333" x="146.384701" y="220.635291" transform="rotate(-285 146.384701 220.635291)">MAY</text>
   </g>
   <g id="text_22">
    <text style="font-weight: 600; font-size: 7.2px; font-family: 'Times New Roman', 'Arial', 'Times', 'DejaVu Serif', serif; text-anchor: middle; fill: #333333" x="132.81573" y="222.742221" transform="rotate(-275 132.81573 222.742221)">JUN</text>
   </g>
   <g id="text_23">
    <text style="font-weight: 600; font-size: 7.2px; font-family: 'Times New Roman', 'Arial', 'Times', 'DejaVu Serif', serif; text-anchor: middle; fill: #333333" x="122.30238" y="222.742221" transform="rotate(-85 122.30238 222.742221)">JUL</text>
   </g>
   <g id="text_24">
    <text style="font-weight: 600; font-size: 7.2px; font-family: 'Times New Roman', 'Arial', 'Times', 'DejaVu Serif', serif; text-anchor: middle; fill: #333333" x="108.733409" y="220.635291" transform="rotate(-75 108.733409 220.635291)">AUG</text>
   </g>
   <g id="text_25">
    <text style="font-weight: 600; font-size: 7.2px; font-family: 'Times New Roman', 'Arial', 'Times', 'DejaVu Serif', serif; text-anchor: middle; fill: #333333" x="95.736446" y="216.204143" transform="rotate(-65 95.736446 216.204143)">SEP</text>
   </g>
   <g id="text_26">
    <text style="font-weight: 600; font-size: 7.2px; font-family: 'Times New Roman', 'Arial', 'Times', 'DejaVu Serif', serif; text-anchor: middle; fill: #333333" x="83.706397" y="209.583415" transform="rotate(-55 83.706397 209.583415)">OCT</text>
   </g>
   <g id="text_27">
    <text style="font-weight: 600; font-size: 7.2px; font-family: 'Times New Roman', 'Arial', 'Times', 'DejaVu Serif', serif; text-anchor: middle; fill: #333333" x="73.008788" y="200.974275" transform="rotate(-45 73.008788 200.974275)">NOV</text>
   </g>
   <g id="text_28">
    <text style="font-weight: 600; font-size: 7.2px; font-family: 'Times New Roman', 'Arial', 'Times', 'DejaVu Serif', serif; text-anchor: middle; fill: #333333" x="63.968662" y="190.638306" transform="rotate(-35 63.968662 190.638306)">DEC</text>
   </g>
   <g id="text_29">
    <text style="font-weight: 600; font-size: 7.2px; font-family: 'Times New Roman', 'Arial', 'Times', 'DejaVu Serif', serif; text-anchor: middle; fill: #333333" x="56.860698" y="178.889563" transform="rotate(-25 56.860698 178.889563)">JAN</text>
   </g>
   <g id="text_30">
    <text style="font-weight: 600; font-size: 7.2px; font-family: 'Times New Roman', 'Arial', 'Times', 'DejaVu Serif', serif; text-anchor: middle; fill: #333333" x="51.900867" y="166.085024" transform="rotate(-15 51.900867 166.085024)">FEB</text>
   </g>
   <g id="text_31">
    <text style="font-weight: 600; font-size: 7.2px; font-family: 'Times New Roman', 'Arial', 'Times', 'DejaVu Serif', serif; text-anchor: middle; fill: #333333" x="49.239872" y="152.61375" transform="rotate(-5 49.239872 152.61375)">MAR</text>
   </g>
   <g id="text_32">
    <text style="font-weight: 600; font-size: 7.2px; font-family: 'Times New Roman', 'Arial', 'Times', 'DejaVu Serif', serif; text-anchor: middle; fill: #333333" x="48.958566" y="138.885058" transform="rotate(-355 48.958566 138.885058)">APR</text>
   </g>
   <g id="text_33">
    <text style="font-weight: 600; font-size: 7.2px; font-family: 'Times New Roman', 'Arial', 'Times', 'DejaVu Serif', serif; text-anchor: middle; fill: #333333" x="51.065496" y="125.316087" transform="rotate(-345 51.065496 125.316087)">MAY</text>
   </g>
   <g id="text_34">
    <text style="font-weight: 600; font-size: 7.2px; font-family: 'Times New Roman', 'Arial', 'Times', 'DejaVu Serif', serif; text-anchor: middle; fill: #333333" x="55.496644" y="112.319123" transform="rotate(-335 55.496644 112.319123)">JUN</text>
   </g>
   <g id="text_35">
    <text style="font-weight: 600; font-size: 7.2px; font-family: 'Times New Roman', 'Arial', 'Times', 'DejaVu Serif', serif; text-anchor: middle; fill: #333333" x="62.117372" y="100.289074" transform="rotate(-325 62.117372 100.289074)">JUL</text>
   </g>
   <g id="text_36">
    <text style="font-weight: 600; font-size: 7.2px; font-family: 'Times New Roman', 'Arial', 'Times', 'DejaVu Serif', serif; text-anchor: middle; fill: #333333" x="70.726513" y="89.591465" transform="rotate(-315 70.726513 89.591465)">AUG</text>
   </g>
   <g id="text_37">
    <text style="font-weight: 600; font-size: 7.2px; font-family: 'Times New Roman', 'Arial', 'Times', 'DejaVu Serif', serif; text-anchor: middle; fill: #333333" x="81.062481" y="80.551339" transform="rotate(-305 81.062481 80.551339)">SEP</text>
   </g>
   <g id="text_38">
    <text style="font-weight: 600; font-size: 7.2px; font-family: 'Times New Roman', 'Arial', 'Times', 'DejaVu Serif', serif; text-anchor: middle; fill: #333333" x="92.811225" y="73.443375" transform="rotate(-295 92.811225 73.443375)">OCT</text>
   </g>
   <g id="text_39">
    <text style="font-weight: 600; font-size: 7.2px; font-family: 'Times New Roman', 'Arial', 'Times', 'DejaVu Serif', serif; text-anchor: middle; fill: #333333" x="105.615763" y="68.483544" transform="rotate(-285 105.615763 68.483544)">NOV</text>
   </g>
   <g id="text_40">
    <text style="font-weight: 600; font-size: 7.2px; font-family: 'Times New Roman', 'Arial', 'Times', 'DejaVu Serif', serif; text-anchor: middle; fill: #333333" x="119.087037" y="65.822549" transform="rotate(-275 119.087037 65.822549)">DEC</text>
   </g>
   <g id="text_41">
    <text style="font-weight: 700; font-size: 10.2px; font-family: 'Times New Roman', 'Arial', 'Times', 'DejaVu Serif', serif; text-anchor: middle; fill: #333333" x="143.540752" y="50.742424" transform="rotate(-350.29007 143.540752 50.742424)">2</text>
   </g>
   <g id="text_42">
    <text style="font-weight: 700; font-size: 10.2px; font-family: 'Times New Roman', 'Arial', 'Times', 'DejaVu Serif', serif; text-anchor: middle; fill: #333333" x="149.08652" y="51.862733" transform="rotate(-346.86851 149.08652 51.862733)">0</text>
   </g>
   <g id="text_43">
    <text style="font-weight: 700; font-size: 10.2px; font-family: 'Times New Roman', 'Arial', 'Times', 'DejaVu Serif', serif; text-anchor: middle; fill: #333333" x="154.55554" y="53.312028" transform="rotate(-343.446951 154.55554 53.312028)">2</text>
   </g>
   <g id="text_44">
    <text style="font-weight: 700; font-size: 10.2px; font-family: 'Times New Roman', 'Arial', 'Times', 'DejaVu Serif', serif; text-anchor: middle; fill: #333333" x="159.922154" y="55.082902" transform="rotate(-340.029355 159.922154 55.082902)">3</text>
   </g>
   <g id="text_45">
    <text style="font-weight: 700; font-size: 10.2px; font-family: 'Times New Roman', 'Arial', 'Times', 'DejaVu Serif', serif; text-anchor: middle; fill: #333333" x="164.032549" y="56.685859" transform="rotate(-337.361411 164.032549 56.685859)">:</text>
   </g>
   <g id="text_46">
    <text style="font-weight: 700; font-size: 10.2px; font-family: 'Times New Roman', 'Arial', 'Times', 'DejaVu Serif', serif; text-anchor: middle; fill: #333333" x="172.1917" y="60.554817" transform="rotate(-331.89926 172.1917 60.554817)">0</text>
   </g>
   <g id="text_47">
    <text style="font-weight: 700; font-size: 10.2px; font-family: 'Times New Roman', 'Arial', 'Times', 'DejaVu Serif', serif; text-anchor: middle; fill: #333333" x="176.039722" y="62.726314" transform="rotate(-329.227352 176.039722 62.726314)">.</text>
   </g>
   <g id="text_48">
    <text style="font-weight: 700; font-size: 10.2px; font-family: 'Times New Roman', 'Arial', 'Times', 'DejaVu Serif', serif; text-anchor: middle; fill: #333333" x="179.782334" y="65.074833" transform="rotate(-326.555444 179.782334 65.074833)">0</text>
   </g>
   <g id="text_49">
    <text style="font-weight: 700; font-size: 10.2px; font-family: 'Times New Roman', 'Arial', 'Times', 'DejaVu Serif', serif; text-anchor: middle; fill: #333333" x="184.440321" y="68.356727" transform="rotate(-323.109538 184.440321 68.356727)">9</text>
   </g>
   <g id="text_50">
    <text style="font-weight: 700; font-size: 10.2px; font-family: 'Times New Roman', 'Arial', 'Times', 'DejaVu Serif', serif; text-anchor: middle; fill: #333333" x="189.297079" y="72.258064" transform="rotate(-319.34203 189.297079 72.258064)">–</text>
   </g>
   <g id="text_51">
    <text style="font-weight: 700; font-size: 10.2px; font-family: 'Times New Roman', 'Arial', 'Times', 'DejaVu Serif', serif; text-anchor: middle; fill: #333333" x="193.559879" y="76.151022" transform="rotate(-315.850828 193.559879 76.151022)">1</text>
   </g>
   <g id="text_52">
    <text style="font-weight: 700; font-size: 10.2px; font-family: 'Times New Roman', 'Arial', 'Times', 'DejaVu Serif', serif; text-anchor: middle; fill: #333333" x="196.369893" y="78.996403" transform="rotate(-313.432578 196.369893 78.996403)">.</text>
   </g>
   <g id="text_53">
    <text style="font-weight: 700; font-size: 10.2px; font-family: 'Times New Roman', 'Arial', 'Times', 'DejaVu Serif', serif; text-anchor: middle; fill: #333333" x="199.341115" y="82.285598" transform="rotate(-310.752178 199.341115 82.285598)">8</text>
   </g>
   <g id="text_54">
    <text style="font-weight: 700; font-size: 10.2px; font-family: 'Times New Roman', 'Arial', 'Times', 'DejaVu Serif', serif; text-anchor: middle; fill: #333333" x="202.933807" y="86.717937" transform="rotate(-307.301742 202.933807 86.717937)">6</text>
   </g>
   <g id="text_55">
    <text style="font-weight: 700; font-size: 10.2px; font-family: 'Times New Roman', 'Arial', 'Times', 'DejaVu Serif', serif; text-anchor: middle; fill: #333333" x="207.664419" y="93.525766" transform="rotate(-302.287456 207.664419 93.525766)">%</text>
   </g>
   <g id="text_56">
    <text style="font-weight: 700; font-size: 10.2px; font-family: 'Times New Roman', 'Arial', 'Times', 'DejaVu Serif', serif; text-anchor: middle; fill: #333333" x="211.190748" y="99.593046" transform="rotate(-298.043206 211.190748 99.593046)">,</text>
   </g>
   <g id="text_57">
    <text style="font-weight: 700; font-size: 10.2px; font-family: 'Times New Roman', 'Arial', 'Times', 'DejaVu Serif', serif; text-anchor: middle; fill: #333333" x="215.672804" y="109.287569" transform="rotate(-291.581707 215.672804 109.287569)">A</text>
   </g>
   <g id="text_58">
    <text style="font-weight: 700; font-size: 10.2px; font-family: 'Times New Roman', 'Arial', 'Times', 'DejaVu Serif', serif; text-anchor: middle; fill: #333333" x="218.212829" y="116.56024" transform="rotate(-286.92243 218.212829 116.56024)">n</text>
   </g>
   <g id="text_59">
    <text style="font-weight: 700; font-size: 10.2px; font-family: 'Times New Roman', 'Arial', 'Times', 'DejaVu Serif', serif; text-anchor: middle; fill: #333333" x="219.877597" y="122.78448" transform="rotate(-283.025828 219.877597 122.78448)">n</text>
   </g>
   <g id="text_60">
    <text style="font-weight: 700; font-size: 10.2px; font-family: 'Times New Roman', 'Arial', 'Times', 'DejaVu Serif', serif; text-anchor: middle; fill: #333333" x="221.115987" y="129.110236" transform="rotate(-279.127526 221.115987 129.110236)">u</text>
   </g>
   <g id="text_61">
    <text style="font-weight: 700; font-size: 10.2px; font-family: 'Times New Roman', 'Arial', 'Times', 'DejaVu Serif', serif; text-anchor: middle; fill: #333333" x="221.891282" y="135.182024" transform="rotate(-275.425697 221.891282 135.182024)">a</text>
   </g>
   <g id="text_62">
    <text style="font-weight: 700; font-size: 10.2px; font-family: 'Times New Roman', 'Arial', 'Times', 'DejaVu Serif', serif; text-anchor: middle; fill: #333333" x="222.217017" y="139.815579" transform="rotate(-272.616768 222.217017 139.815579)">l</text>
   </g>
   <g id="text_63">
    <text style="font-weight: 700; font-size: 10.2px; font-family: 'Times New Roman', 'Arial', 'Times', 'DejaVu Serif', serif; text-anchor: middle; fill: #333333" x="222.31064" y="143.150468" transform="rotate(-270.59939 222.31064 143.150468)">.</text>
   </g>
   <g id="text_64">
    <text style="font-weight: 700; font-size: 10.2px; font-family: 'Times New Roman', 'Arial', 'Times', 'DejaVu Serif', serif; text-anchor: middle; fill: #333333" x="221.974758" y="152.174201" transform="rotate(-265.137239 221.974758 152.174201)">0</text>
   </g>
   <g id="text_65">
    <text style="font-weight: 700; font-size: 10.2px; font-family: 'Times New Roman', 'Arial', 'Times', 'DejaVu Serif', serif; text-anchor: middle; fill: #333333" x="221.497667" y="156.566816" transform="rotate(-262.465331 221.497667 156.566816)">.</text>
   </g>
   <g id="text_66">
    <text style="font-weight: 700; font-size: 10.2px; font-family: 'Times New Roman', 'Arial', 'Times', 'DejaVu Serif', serif; text-anchor: middle; fill: #333333" x="220.810845" y="160.962826" transform="rotate(-259.774739 220.810845 160.962826)">6</text>
   </g>
   <g id="text_67">
    <text style="font-weight: 700; font-size: 10.2px; font-family: 'Times New Roman', 'Arial', 'Times', 'DejaVu Serif', serif; text-anchor: middle; fill: #333333" x="219.622333" y="166.573813" transform="rotate(-256.306185 219.622333 166.573813)">4</text>
   </g>
   <g id="text_68">
    <text style="font-weight: 700; font-size: 10.2px; font-family: 'Times New Roman', 'Arial', 'Times', 'DejaVu Serif', serif; text-anchor: middle; fill: #333333" x="217.305139" y="174.54709" transform="rotate(-251.283972 217.305139 174.54709)">%</text>
   </g>
   <g id="text_69">
    <text style="font-weight: 700; font-size: 10.2px; font-family: 'Times New Roman', 'Arial', 'Times', 'DejaVu Serif', serif; text-anchor: middle; fill: #333333" x="51.154009" y="207.612722" transform="rotate(-309.716997 51.154009 207.612722)">2</text>
   </g>
   <g id="text_70">
    <text style="font-weight: 700; font-size: 10.2px; font-family: 'Times New Roman', 'Arial', 'Times', 'DejaVu Serif', serif; text-anchor: middle; fill: #333333" x="55.095045" y="212.077473" transform="rotate(-313.152697 55.095045 212.077473)">0</text>
   </g>
   <g id="text_71">
    <text style="font-weight: 700; font-size: 10.2px; font-family: 'Times New Roman', 'Arial', 'Times', 'DejaVu Serif', serif; text-anchor: middle; fill: #333333" x="59.296562" y="216.298019" transform="rotate(-316.588397 59.296562 216.298019)">2</text>
   </g>
   <g id="text_72">
    <text style="font-weight: 700; font-size: 10.2px; font-family: 'Times New Roman', 'Arial', 'Times', 'DejaVu Serif', serif; text-anchor: middle; fill: #333333" x="63.778965" y="220.288944" transform="rotate(-320.050819 63.778965 220.288944)">4</text>
   </g>
   <g id="text_73">
    <text style="font-weight: 700; font-size: 10.2px; font-family: 'Times New Roman', 'Arial', 'Times', 'DejaVu Serif', serif; text-anchor: middle; fill: #333333" x="67.450142" y="223.219012" transform="rotate(-322.760491 67.450142 223.219012)">:</text>
   </g>
   <g id="text_74">
    <text style="font-weight: 700; font-size: 10.2px; font-family: 'Times New Roman', 'Arial', 'Times', 'DejaVu Serif', serif; text-anchor: middle; fill: #333333" x="75.283575" y="228.602207" transform="rotate(-328.245217 75.283575 228.602207)">0</text>
   </g>
   <g id="text_75">
    <text style="font-weight: 700; font-size: 10.2px; font-family: 'Times New Roman', 'Arial', 'Times', 'DejaVu Serif', serif; text-anchor: middle; fill: #333333" x="79.294405" y="230.9566" transform="rotate(-330.928167 79.294405 230.9566)">.</text>
   </g>
   <g id="text_76">
    <text style="font-weight: 700; font-size: 10.2px; font-family: 'Times New Roman', 'Arial', 'Times', 'DejaVu Serif', serif; text-anchor: middle; fill: #333333" x="83.411045" y="233.120667" transform="rotate(-333.611117 83.411045 233.120667)">0</text>
   </g>
   <g id="text_77">
    <text style="font-weight: 700; font-size: 10.2px; font-family: 'Times New Roman', 'Arial', 'Times', 'DejaVu Serif', serif; text-anchor: middle; fill: #333333" x="88.868139" y="235.625669" transform="rotate(-337.075244 88.868139 235.625669)">4</text>
   </g>
   <g id="text_78">
    <text style="font-weight: 700; font-size: 10.2px; font-family: 'Times New Roman', 'Arial', 'Times', 'DejaVu Serif', serif; text-anchor: middle; fill: #333333" x="94.995004" y="237.981384" transform="rotate(-340.862303 94.995004 237.981384)">–</text>
   </g>
   <g id="text_79">
    <text style="font-weight: 700; font-size: 10.2px; font-family: 'Times New Roman', 'Arial', 'Times', 'DejaVu Serif', serif; text-anchor: middle; fill: #333333" x="101.310658" y="239.940058" transform="rotate(-344.677221 101.310658 239.940058)">7</text>
   </g>
   <g id="text_80">
    <text style="font-weight: 700; font-size: 10.2px; font-family: 'Times New Roman', 'Arial', 'Times', 'DejaVu Serif', serif; text-anchor: middle; fill: #333333" x="105.916011" y="241.084377" transform="rotate(-347.414751 105.916011 241.084377)">.</text>
   </g>
   <g id="text_81">
    <text style="font-weight: 700; font-size: 10.2px; font-family: 'Times New Roman', 'Arial', 'Times', 'DejaVu Serif', serif; text-anchor: middle; fill: #333333" x="110.474631" y="241.990698" transform="rotate(-350.095996 110.474631 241.990698)">2</text>
   </g>
   <g id="text_82">
    <text style="font-weight: 700; font-size: 10.2px; font-family: 'Times New Roman', 'Arial', 'Times', 'DejaVu Serif', serif; text-anchor: middle; fill: #333333" x="116.366326" y="242.83834" transform="rotate(-353.529991 116.366326 242.83834)">2</text>
   </g>
   <g id="text_83">
    <text style="font-weight: 700; font-size: 10.2px; font-family: 'Times New Roman', 'Arial', 'Times', 'DejaVu Serif', serif; text-anchor: middle; fill: #333333" x="125.036095" y="243.438924" transform="rotate(-358.544532 125.036095 243.438924)">%</text>
   </g>
   <g id="text_84">
    <text style="font-weight: 700; font-size: 10.2px; font-family: 'Times New Roman', 'Arial', 'Times', 'DejaVu Serif', serif; text-anchor: middle; fill: #333333" x="132.422216" y="243.351849" transform="rotate(-2.806324 132.422216 243.351849)">,</text>
   </g>
   <g id="text_85">
    <text style="font-weight: 700; font-size: 10.2px; font-family: 'Times New Roman', 'Arial', 'Times', 'DejaVu Serif', serif; text-anchor: middle; fill: #333333" x="143.601676" y="242.166892" transform="rotate(-9.294527 143.601676 242.166892)">A</text>
   </g>
   <g id="text_86">
    <text style="font-weight: 700; font-size: 10.2px; font-family: 'Times New Roman', 'Arial', 'Times', 'DejaVu Serif', serif; text-anchor: middle; fill: #333333" x="151.543653" y="240.531756" transform="rotate(-13.97306 151.543653 240.531756)">n</text>
   </g>
   <g id="text_87">
    <text style="font-weight: 700; font-size: 10.2px; font-family: 'Times New Roman', 'Arial', 'Times', 'DejaVu Serif', serif; text-anchor: middle; fill: #333333" x="158.065072" y="238.670461" transform="rotate(-17.885767 158.065072 238.670461)">n</text>
   </g>
   <g id="text_88">
    <text style="font-weight: 700; font-size: 10.2px; font-family: 'Times New Roman', 'Arial', 'Times', 'DejaVu Serif', serif; text-anchor: middle; fill: #333333" x="164.447028" y="236.367407" transform="rotate(-21.800179 164.447028 236.367407)">u</text>
   </g>
   <g id="text_89">
    <text style="font-weight: 700; font-size: 10.2px; font-family: 'Times New Roman', 'Arial', 'Times', 'DejaVu Serif', serif; text-anchor: middle; fill: #333333" x="170.348475" y="233.78192" transform="rotate(-25.517308 170.348475 233.78192)">a</text>
   </g>
   <g id="text_90">
    <text style="font-weight: 700; font-size: 10.2px; font-family: 'Times New Roman', 'Arial', 'Times', 'DejaVu Serif', serif; text-anchor: middle; fill: #333333" x="174.707633" y="231.567754" transform="rotate(-28.337845 174.707633 231.567754)">l</text>
   </g>
   <g id="text_91">
    <text style="font-weight: 700; font-size: 10.2px; font-family: 'Times New Roman', 'Arial', 'Times', 'DejaVu Serif', serif; text-anchor: middle; fill: #333333" x="177.768507" y="229.846508" transform="rotate(-30.363561 177.768507 229.846508)">.</text>
   </g>
   <g id="text_92">
    <text style="font-weight: 700; font-size: 10.2px; font-family: 'Times New Roman', 'Arial', 'Times', 'DejaVu Serif', serif; text-anchor: middle; fill: #333333" x="185.371836" y="224.91289" transform="rotate(-35.59358 185.371836 224.91289)">1</text>
   </g>
   <g id="text_93">
    <text style="font-weight: 700; font-size: 10.2px; font-family: 'Times New Roman', 'Arial', 'Times', 'DejaVu Serif', serif; text-anchor: middle; fill: #333333" x="188.742049" y="222.390942" transform="rotate(-38.021823 188.742049 222.390942)">.</text>
   </g>
   <g id="text_94">
    <text style="font-weight: 700; font-size: 10.2px; font-family: 'Times New Roman', 'Arial', 'Times', 'DejaVu Serif', serif; text-anchor: middle; fill: #333333" x="192.372878" y="219.411022" transform="rotate(-40.731495 192.372878 219.411022)">4</text>
   </g>
   <g id="text_95">
    <text style="font-weight: 700; font-size: 10.2px; font-family: 'Times New Roman', 'Arial', 'Times', 'DejaVu Serif', serif; text-anchor: middle; fill: #333333" x="196.485223" y="215.664323" transform="rotate(-43.940915 196.485223 215.664323)">1</text>
   </g>
   <g id="text_96">
    <text style="font-weight: 700; font-size: 10.2px; font-family: 'Times New Roman', 'Arial', 'Times', 'DejaVu Serif', serif; text-anchor: middle; fill: #333333" x="202.184359" y="209.695997" transform="rotate(-48.702456 202.184359 209.695997)">%</text>
   </g>
   <g id="text_97">
    <text style="font-weight: 700; font-size: 10.2px; font-family: 'Times New Roman', 'Arial', 'Times', 'DejaVu Serif', serif; text-anchor: middle; fill: #333333" x="38.67182" y="176.973194" transform="rotate(-110.272254 38.67182 176.973194)">2</text>
   </g>
   <g id="text_98">
    <text style="font-weight: 700; font-size: 10.2px; font-family: 'Times New Roman', 'Arial', 'Times', 'DejaVu Serif', serif; text-anchor: middle; fill: #333333" x="36.853747" y="171.553273" transform="rotate(-106.815046 36.853747 171.553273)">0</text>
   </g>
   <g id="text_99">
    <text style="font-weight: 700; font-size: 10.2px; font-family: 'Times New Roman', 'Arial', 'Times', 'DejaVu Serif', serif; text-anchor: middle; fill: #333333" x="35.365821" y="166.03358" transform="rotate(-103.357838 35.365821 166.03358)">2</text>
   </g>
   <g id="text_100">
    <text style="font-weight: 700; font-size: 10.2px; font-family: 'Times New Roman', 'Arial', 'Times', 'DejaVu Serif', serif; text-anchor: middle; fill: #333333" x="34.212156" y="160.426749" transform="rotate(-99.896054 34.212156 160.426749)">5</text>
   </g>
   <g id="text_101">
    <text style="font-weight: 700; font-size: 10.2px; font-family: 'Times New Roman', 'Arial', 'Times', 'DejaVu Serif', serif; text-anchor: middle; fill: #333333" x="33.547758" y="156.004337" transform="rotate(-97.191731 33.547758 156.004337)">:</text>
   </g>
   <g id="text_102">
    <text style="font-weight: 700; font-size: 10.2px; font-family: 'Times New Roman', 'Arial', 'Times', 'DejaVu Serif', serif; text-anchor: middle; fill: #333333" x="32.842661" y="146.907631" transform="rotate(-91.67267 32.842661 146.907631)">0</text>
   </g>
   <g id="text_103">
    <text style="font-weight: 700; font-size: 10.2px; font-family: 'Times New Roman', 'Arial', 'Times', 'DejaVu Serif', serif; text-anchor: middle; fill: #333333" x="32.817509" y="142.443227" transform="rotate(-88.972924 32.817509 142.443227)">.</text>
   </g>
   <g id="text_104">
    <text style="font-weight: 700; font-size: 10.2px; font-family: 'Times New Roman', 'Arial', 'Times', 'DejaVu Serif', serif; text-anchor: middle; fill: #333333" x="32.976062" y="138.405634" transform="rotate(-86.52948 32.976062 138.405634)">1</text>
   </g>
   <g id="text_105">
    <text style="font-weight: 700; font-size: 10.2px; font-family: 'Times New Roman', 'Arial', 'Times', 'DejaVu Serif', serif; text-anchor: middle; fill: #333333" x="33.445891" y="133.116408" transform="rotate(-83.318275 33.445891 133.116408)">8</text>
   </g>
   <g id="text_106">
    <text style="font-weight: 700; font-size: 10.2px; font-family: 'Times New Roman', 'Arial', 'Times', 'DejaVu Serif', serif; text-anchor: middle; fill: #333333" x="34.381225" y="126.915664" transform="rotate(-79.525816 34.381225 126.915664)">–</text>
   </g>
   <g id="text_107">
    <text style="font-weight: 700; font-size: 10.2px; font-family: 'Times New Roman', 'Arial', 'Times', 'DejaVu Serif', serif; text-anchor: middle; fill: #333333" x="35.74356" y="120.716097" transform="rotate(-75.687017 35.74356 120.716097)">7</text>
   </g>
   <g id="text_108">
    <text style="font-weight: 700; font-size: 10.2px; font-family: 'Times New Roman', 'Arial', 'Times', 'DejaVu Serif', serif; text-anchor: middle; fill: #333333" x="36.97548" y="116.33056" transform="rotate(-72.932349 36.97548 116.33056)">.</text>
   </g>
   <g id="text_109">
    <text style="font-weight: 700; font-size: 10.2px; font-family: 'Times New Roman', 'Arial', 'Times', 'DejaVu Serif', serif; text-anchor: middle; fill: #333333" x="38.385022" y="112.09743" transform="rotate(-70.234319 38.385022 112.09743)">2</text>
   </g>
   <g id="text_110">
    <text style="font-weight: 700; font-size: 10.2px; font-family: 'Times New Roman', 'Arial', 'Times', 'DejaVu Serif', serif; text-anchor: middle; fill: #333333" x="40.313412" y="107.168185" transform="rotate(-67.033413 40.313412 107.168185)">1</text>
   </g>
   <g id="text_111">
    <text style="font-weight: 700; font-size: 10.2px; font-family: 'Times New Roman', 'Arial', 'Times', 'DejaVu Serif', serif; text-anchor: middle; fill: #333333" x="43.706596" y="100.009991" transform="rotate(-62.242065 43.706596 100.009991)">%</text>
   </g>
   <g id="text_112">
    <text style="font-weight: 700; font-size: 10.2px; font-family: 'Times New Roman', 'Arial', 'Times', 'DejaVu Serif', serif; text-anchor: middle; fill: #333333" x="47.241453" y="93.863225" transform="rotate(-57.953594 47.241453 93.863225)">,</text>
   </g>
   <g id="text_113">
    <text style="font-weight: 700; font-size: 10.2px; font-family: 'Times New Roman', 'Arial', 'Times', 'DejaVu Serif', serif; text-anchor: middle; fill: #333333" x="53.479145" y="85.056943" transform="rotate(-51.424774 53.479145 85.056943)">A</text>
   </g>
   <g id="text_114">
    <text style="font-weight: 700; font-size: 10.2px; font-family: 'Times New Roman', 'Arial', 'Times', 'DejaVu Serif', serif; text-anchor: middle; fill: #333333" x="58.578434" y="79.176208" transform="rotate(-46.716953 58.578434 79.176208)">n</text>
   </g>
   <g id="text_115">
    <text style="font-weight: 700; font-size: 10.2px; font-family: 'Times New Roman', 'Arial', 'Times', 'DejaVu Serif', serif; text-anchor: middle; fill: #333333" x="63.201966" y="74.593113" transform="rotate(-42.779752 63.201966 74.593113)">n</text>
   </g>
   <g id="text_116">
    <text style="font-weight: 700; font-size: 10.2px; font-family: 'Times New Roman', 'Arial', 'Times', 'DejaVu Serif', serif; text-anchor: middle; fill: #333333" x="68.131486" y="70.33652" transform="rotate(-38.840835 68.131486 70.33652)">u</text>
   </g>
   <g id="text_117">
    <text style="font-weight: 700; font-size: 10.2px; font-family: 'Times New Roman', 'Arial', 'Times', 'DejaVu Serif', serif; text-anchor: middle; fill: #333333" x="73.072824" y="66.616923" transform="rotate(-35.100437 73.072824 66.616923)">a</text>
   </g>
   <g id="text_118">
    <text style="font-weight: 700; font-size: 10.2px; font-family: 'Times New Roman', 'Arial', 'Times', 'DejaVu Serif', serif; text-anchor: middle; fill: #333333" x="76.978345" y="64.014101" transform="rotate(-32.262242 76.978345 64.014101)">l</text>
   </g>
   <g id="text_119">
    <text style="font-weight: 700; font-size: 10.2px; font-family: 'Times New Roman', 'Arial', 'Times', 'DejaVu Serif', serif; text-anchor: middle; fill: #333333" x="79.86043" y="62.265688" transform="rotate(-30.223846 79.86043 62.265688)">.</text>
   </g>
   <g id="text_120">
    <text style="font-weight: 700; font-size: 10.2px; font-family: 'Times New Roman', 'Arial', 'Times', 'DejaVu Serif', serif; text-anchor: middle; fill: #333333" x="87.953553" y="58.058925" transform="rotate(-24.706501 87.953553 58.058925)">2</text>
   </g>
   <g id="text_121">
    <text style="font-weight: 700; font-size: 10.2px; font-family: 'Times New Roman', 'Arial', 'Times', 'DejaVu Serif', serif; text-anchor: middle; fill: #333333" x="92.049555" y="56.290034" transform="rotate(-22.008471 92.049555 56.290034)">.</text>
   </g>
   <g id="text_122">
    <text style="font-weight: 700; font-size: 10.2px; font-family: 'Times New Roman', 'Arial', 'Times', 'DejaVu Serif', serif; text-anchor: middle; fill: #333333" x="95.827241" y="54.856025" transform="rotate(-19.565027 95.827241 54.856025)">1</text>
   </g>
   <g id="text_123">
    <text style="font-weight: 700; font-size: 10.2px; font-family: 'Times New Roman', 'Arial', 'Times', 'DejaVu Serif', serif; text-anchor: middle; fill: #333333" x="100.86222" y="53.223503" transform="rotate(-16.36412 100.86222 53.223503)">2</text>
   </g>
   <g id="text_124">
    <text style="font-weight: 700; font-size: 10.2px; font-family: 'Times New Roman', 'Arial', 'Times', 'DejaVu Serif', serif; text-anchor: middle; fill: #333333" x="108.962337" y="51.227753" transform="rotate(-11.318187 108.962337 51.227753)">%</text>
   </g>
   <g id="line2d_10">
    <path d="M 25.537323 245.066457 
L 47.47748 245.066457 
" style="fill: none; stroke-dasharray: 6.4,4.8; stroke-dashoffset: 0; stroke: #b7b7b7; stroke-opacity: 0.95; stroke-width: 2"/>
   </g>
   <g id="line2d_11">
    <path d="M 25.537323 245.066457 
L 25.537323 238.484409 
" style="fill: none; stroke: #b7b7b7; stroke-opacity: 0.95; stroke-width: 2"/>
   </g>
   <g id="line2d_12">
    <path d="M 47.47748 245.066457 
L 47.47748 238.484409 
" style="fill: none; stroke: #b7b7b7; stroke-opacity: 0.95; stroke-width: 2"/>
   </g>
   <g id="text_125">
    <text style="font-weight: 700; font-size: 10px; font-family: 'Times New Roman', 'Arial', 'Times', 'DejaVu Serif', serif; text-anchor: start; fill: #333333" x="50.768504" y="244.016839" transform="rotate(-0 50.768504 244.016839)">5%</text>
   </g>
  </g>
 </g>
 <defs>
  <clipPath id="p89e3353ec9">
   <path d="M 237.259843 144.141732 
C 237.259843 129.735957 234.422219 115.470259 228.909367 102.161058 
C 223.396516 88.851857 215.315647 76.757983 205.129226 66.571562 
C 194.942804 56.38514 182.84893 48.304272 169.539729 42.79142 
C 156.230528 37.278569 141.964831 34.440945 127.559055 34.440945 
C 113.15328 34.440945 98.887582 37.278569 85.578381 42.79142 
C 72.26918 48.304272 60.175306 56.38514 49.988884 66.571562 
C 39.802463 76.757983 31.721595 88.851857 26.208743 102.161058 
C 20.695891 115.470259 17.858268 129.735957 17.858268 144.141732 
C 17.858268 158.547508 20.695891 172.813205 26.208743 186.122406 
C 31.721595 199.431607 39.802463 211.525481 49.988884 221.711903 
C 60.175306 231.898324 72.26918 239.979193 85.578381 245.492044 
C 98.887582 251.004896 113.15328 253.84252 127.559055 253.84252 
C 141.964831 253.84252 156.230528 251.004896 169.539729 245.492044 
C 182.84893 239.979193 194.942804 231.898324 205.129226 221.711903 
C 215.315647 211.525481 223.396516 199.431607 228.909367 186.122406 
C 234.422219 172.813205 237.259843 158.547508 237.259843 144.141732 
M 127.559055 144.141732 
C 127.559055 144.141732 127.559055 144.141732 127.559055 144.141732 
C 127.559055 144.141732 127.559055 144.141732 127.559055 144.141732 
C 127.559055 144.141732 127.559055 144.141732 127.559055 144.141732 
C 127.559055 144.141732 127.559055 144.141732 127.559055 144.141732 
C 127.559055 144.141732 127.559055 144.141732 127.559055 144.141732 
C 127.559055 144.141732 127.559055 144.141732 127.559055 144.141732 
C 127.559055 144.141732 127.559055 144.141732 127.559055 144.141732 
C 127.559055 144.141732 127.559055 144.141732 127.559055 144.141732 
C 127.559055 144.141732 127.559055 144.141732 127.559055 144.141732 
C 127.559055 144.141732 127.559055 144.141732 127.559055 144.141732 
C 127.559055 144.141732 127.559055 144.141732 127.559055 144.141732 
C 127.559055 144.141732 127.559055 144.141732 127.559055 144.141732 
C 127.559055 144.141732 127.559055 144.141732 127.559055 144.141732 
C 127.559055 144.141732 127.559055 144.141732 127.559055 144.141732 
C 127.559055 144.141732 127.559055 144.141732 127.559055 144.141732 
C 127.559055 144.141732 127.559055 144.141732 127.559055 144.141732 
z
"/>
  </clipPath>
 </defs>
</svg>
